<?xml version="1.0" standalone="yes"?>

<svg version="1.1" viewBox="0.0 0.0 688.1312335958005 683.2388451443569" fill="none" stroke="none" stroke-linecap="square" stroke-miterlimit="10" xmlns="http://www.w3.org/2000/svg" xmlns:xlink="http://www.w3.org/1999/xlink"><clipPath id="p.0"><path d="m0 0l688.1312 0l0 683.23883l-688.1312 0l0 -683.23883z" clip-rule="nonzero"></path></clipPath><g clip-path="url(#p.0)"><path fill="#000000" fill-opacity="0.0" d="m0 0l688.1312 0l0 683.23883l-688.1312 0z" fill-rule="nonzero"></path><path fill="#000000" fill-opacity="0.0" d="m21.60768 341.61942l0 0c0 -178.0879 144.36877 -322.4567 322.4567 -322.4567l0 0c85.52084 0 167.53897 33.973022 228.01132 94.44538c60.47235 60.472366 94.44537 142.4905 94.44537 228.0113l0 0c0 178.08792 -144.36877 322.4567 -322.4567 322.4567l0 0c-178.0879 0 -322.4567 -144.36877 -322.4567 -322.4567z" fill-rule="nonzero"></path><path stroke="#000000" stroke-width="8.0" stroke-linejoin="round" stroke-linecap="butt" d="m21.60768 341.61942l0 0c0 -178.0879 144.36877 -322.4567 322.4567 -322.4567l0 0c85.52084 0 167.53897 33.973022 228.01132 94.44538c60.47235 60.472366 94.44537 142.4905 94.44537 228.0113l0 0c0 178.08792 -144.36877 322.4567 -322.4567 322.4567l0 0c-178.0879 0 -322.4567 -144.36877 -322.4567 -322.4567z" fill-rule="nonzero"></path><path fill="#000000" d="m137.87927 483.44028l0 0c0 -8.316956 41.245605 -15.059174 92.124664 -15.059174c50.87906 0 92.124664 6.742218 92.124664 15.059174l0 60.236786c0 8.316956 -41.245605 15.059143 -92.124664 15.059143c-50.87906 0 -92.124664 -6.7421875 -92.124664 -15.059143z" fill-rule="nonzero"></path><path fill="#000000" fill-opacity="0.0" d="m322.1286 483.44028l0 0c0 8.316956 -41.245605 15.059204 -92.124664 15.059204c-50.87906 0 -92.124664 -6.7422485 -92.124664 -15.059204" fill-rule="nonzero"></path><path fill="#000000" fill-opacity="0.0" d="m137.87927 483.44028l0 0c0 -8.316956 41.245605 -15.059174 92.124664 -15.059174c50.87906 0 92.124664 6.742218 92.124664 15.059174l0 60.236786c0 8.316956 -41.245605 15.059143 -92.124664 15.059143c-50.87906 0 -92.124664 -6.7421875 -92.124664 -15.059143z" fill-rule="nonzero"></path><path stroke="#ffffff" stroke-width="4.0" stroke-linejoin="round" stroke-linecap="butt" d="m322.1286 483.44028l0 0c0 8.316956 -41.245605 15.059204 -92.124664 15.059204c-50.87906 0 -92.124664 -6.7422485 -92.124664 -15.059204" fill-rule="nonzero"></path><path stroke="#ffffff" stroke-width="4.0" stroke-linejoin="round" stroke-linecap="butt" d="m137.87927 483.44028l0 0c0 -8.316956 41.245605 -15.059174 92.124664 -15.059174c50.87906 0 92.124664 6.742218 92.124664 15.059174l0 60.236786c0 8.316956 -41.245605 15.059143 -92.124664 15.059143c-50.87906 0 -92.124664 -6.7421875 -92.124664 -15.059143z" fill-rule="nonzero"></path><path fill="#000000" d="m455.76144 551.0516l0 0c-38.2753 8.861389 -77.9216 -9.002808 -96.93759 -43.67914l36.51007 -19.96579l0 0c10.024475 18.239075 30.802917 27.700226 50.845398 23.151703z" fill-rule="nonzero"></path><path stroke="#000000" stroke-width="1.0" stroke-linejoin="round" stroke-linecap="butt" d="m455.76144 551.0516l0 0c-38.2753 8.861389 -77.9216 -9.002808 -96.93759 -43.67914l36.51007 -19.96579l0 0c10.024475 18.239075 30.802917 27.700226 50.845398 23.151703z" fill-rule="nonzero"></path><path fill="#000000" d="m396.75836 489.59787l-35.09265 22.578644l-223.70071 -347.7882l35.092636 -22.578629z" fill-rule="nonzero"></path><path stroke="#000000" stroke-width="1.0" stroke-linejoin="round" stroke-linecap="butt" d="m396.75836 489.59787l-35.09265 22.578644l-223.70071 -347.7882l35.092636 -22.578629z" fill-rule="nonzero"></path><path fill="#000000" d="m527.5158 491.38986l9.557312 40.592255l-81.00098 19.108887l-9.557312 -40.592285z" fill-rule="nonzero"></path><path stroke="#000000" stroke-width="1.0" stroke-linejoin="round" stroke-linecap="butt" d="m527.5158 491.38986l9.557312 40.592255l-81.00098 19.108887l-9.557312 -40.592285z" fill-rule="nonzero"></path><path fill="#000000" d="m513.3376 509.67017l0 0c0.9260864 -11.49585 10.996094 -20.064331 22.491882 -19.138275l0 0c5.520508 0.44473267 10.638245 3.0642395 14.227356 7.2822876c3.5891113 4.218048 5.355652 9.689117 4.9109497 15.209625l0 0c-0.9260864 11.49585 -10.996094 20.064331 -22.491882 19.138245l0 0c-11.49585 -0.9260864 -20.064331 -10.996033 -19.138306 -22.491882z" fill-rule="nonzero"></path><path stroke="#000000" stroke-width="1.0" stroke-linejoin="round" stroke-linecap="butt" d="m513.3376 509.67017l0 0c0.9260864 -11.49585 10.996094 -20.064331 22.491882 -19.138275l0 0c5.520508 0.44473267 10.638245 3.0642395 14.227356 7.2822876c3.5891113 4.218048 5.355652 9.689117 4.9109497 15.209625l0 0c-0.9260864 11.49585 -10.996094 20.064331 -22.491882 19.138245l0 0c-11.49585 -0.9260864 -20.064331 -10.996033 -19.138306 -22.491882z" fill-rule="nonzero"></path><path fill="#ffffff" d="m175.53838 222.4307l34.65268 -21.824097l4.8760223 7.72377l-34.65268 21.824097z" fill-rule="nonzero"></path><path stroke="#000000" stroke-width="1.0" stroke-linejoin="round" stroke-linecap="butt" d="m175.53838 222.4307l34.65268 -21.824097l4.8760223 7.72377l-34.65268 21.824097z" fill-rule="nonzero"></path><path fill="#000000" d="m308.81366 139.14568l248.65613 0l0 173.82414l-248.65613 0z" fill-rule="nonzero"></path><path fill="#000000" fill-opacity="0.0" d="m339.89566 139.14568l0 173.82414m-31.082 -152.09613l248.65613 0" fill-rule="nonzero"></path><path fill="#000000" fill-opacity="0.0" d="m308.81366 139.14568l248.65613 0l0 173.82414l-248.65613 0z" fill-rule="nonzero"></path><path stroke="#ffffff" stroke-width="8.0" stroke-linejoin="round" stroke-linecap="butt" d="m339.89566 139.14568l0 173.82414m-31.082 -152.09613l248.65613 0" fill-rule="nonzero"></path><path stroke="#ffffff" stroke-width="8.0" stroke-linejoin="round" stroke-linecap="butt" d="m308.81366 139.14568l248.65613 0l0 173.82414l-248.65613 0z" fill-rule="nonzero"></path></g></svg>

